<?xml version="1.0" encoding="utf-8"?>
<!-- Generator: Adobe Illustrator 27.1.1, SVG Export Plug-In . SVG Version: 6.00 Build 0)  -->
<svg version="1.1" id="Layer_1" xmlns="http://www.w3.org/2000/svg" xmlns:xlink="http://www.w3.org/1999/xlink" x="0px" y="0px"
	 viewBox="0 0 421.4 159.3" style="enable-background:new 0 0 421.4 159.3;" xml:space="preserve">
<style type="text/css">
	.st0{fill:none;stroke:#FBBC06;stroke-width:8;stroke-miterlimit:10;}
</style>
<g>
	<path d="M34.4,41.3H17.7c-1.1,0-1.9-0.9-1.9-1.9v-5.7c0-1,0.8-1.9,1.9-1.9h43.9c1.1,0,1.9,0.9,1.9,1.9v5.7c0,1-0.8,1.9-1.9,1.9H45
		v59.9c0,1-0.9,1.9-1.9,1.9h-6.7c-1,0-1.9-0.9-1.9-1.9V41.3z"/>
	<path d="M91.6,33.6c0-1,0.9-1.9,1.9-1.9h6.7c1,0,1.9,0.9,1.9,1.9v67.6c0,1-0.9,1.9-1.9,1.9h-6.7c-1,0-1.9-0.9-1.9-1.9V33.6z"/>
	<path d="M127.7,94.2l3.7-4c1.4-1.2,2.3-0.8,3.3,0.2c1.5,1.7,4.4,4.4,8.4,4.4c5,0,10.3-3.9,10.3-12.9V33.6c0-1,0.8-1.9,1.9-1.9h6.7
		c1.1,0,1.9,0.9,1.9,1.9v48.2c0,14.2-9,22.4-20.9,22.4c-8.9,0-13.8-5.3-15.5-7.5C127,95.9,127.1,94.9,127.7,94.2z"/>
	<path d="M229.7,30.7c20.4,0,36.8,16.4,36.8,36.9s-16.3,36.7-36.8,36.7c-20.4,0-36.7-16.2-36.7-36.7S209.2,30.7,229.7,30.7z
		 M229.7,94c14.6,0,26.5-11.8,26.5-26.4c0-14.5-11.9-26.6-26.5-26.6c-14.5,0-26.4,12.2-26.4,26.6C203.2,82.1,215.2,94,229.7,94z"/>
	<path d="M298.1,33.6c0-1,0.8-1.9,1.9-1.9h27.8c12.3,0,22.3,9.7,22.3,21.8c0,9.4-6.2,17.2-15.1,20.7l14,25.9c0.7,1.3,0,3-1.7,3h-8
		c-0.8,0-1.4-0.5-1.6-0.9L324,75.2h-15.4v26c0,1-0.9,1.9-1.9,1.9H300c-1.1,0-1.9-0.9-1.9-1.9V33.6z M327,66.4
		c6.6,0,12.5-5.6,12.5-12.7c0-6.6-5.8-12.2-12.5-12.2h-18.2v24.8H327z"/>
	<path d="M383,33.6c0-1,0.9-1.9,1.9-1.9h6.7c1,0,1.9,0.9,1.9,1.9v67.6c0,1-0.9,1.9-1.9,1.9h-6.7c-1,0-1.9-0.9-1.9-1.9V33.6z"/>
</g>
<line class="st0" x1="26.5" y1="134.9" x2="398.4" y2="134.9"/>
</svg>
